{"title":"The Killing Strain {2010} DVDRiP XViD~Wolftatt2~","uid":6746133,"size":1177548550,"categoryP":"video","categoryS":"movies","magnet":"?xt=urn:btih:f76cb2f69c49a843ed234b8378e7eafccc8e19da&amp;dn=The+Killing+Strain+%7B2010%7D+DVDRiP+XViD%7EWolftatt2%7E&amp;tr=udp%3A%2F%2Ftracker.openbittorrent.com%3A80&amp;tr=udp%3A%2F%2Fopen.demonii.com%3A1337&amp;tr=udp%3A%2F%2Ftracker.coppersurfer.tk%3A6969&amp;tr=udp%3A%2F%2Fexodus.desync.com%3A6969","seeders":0,"leechers":1,"uploader":"Applemaggot","files":4,"time":1318695151,"description":"The Killing Strain {2010}\n\nA man-made virus, 'The Killing Strain'-- an out-of-control swine flu-- turns infected humans into raging monsters. As it rapidly spreads, a group of uninfected survivors must make life-or-death decisions before the U.S. military firebombs the area in a desperate attempt contain the contagion. The survivors are unaware that the virus has already reached their group-- by infecting one of them-- and now the merciless metamorphic process has begun.\n &lt;a href=&quot;\nhttp://www.imdb.com/title/tt1669819/&quot; rel=&quot;nofollow&quot; target=&quot;_NEW&quot;&gt;\nhttp://www.imdb.com/title/tt1669819/&lt;/a&gt;\n\nGeneral\nComplete name                    :The Killing Strain {2010} DVDRiP XViD~Wolftatt2~.avi\nFormat                           : AVI\nFormat/Info                      : Audio Video Interleave\nFormat profile                   : OpenDML\nFile size                        : 1.10 GiB\nDuration                         : 1h 41mn\nOverall bit rate                 : 1 545 Kbps\nMovie name                       : A_KILLING_STRAIN.Title4.DVDRip\nWriting application              : Lavf52.78.4\nOriginal source form/Name        : A_KILLING_STRAIN\n\nVideo\nID                               : 0\nFormat                           : MPEG-4 Visual\nFormat profile                   : Advanced Simple@L5\nFormat settings, BVOP            : 2\nFormat settings, QPel            : No\nFormat settings, GMC             : No warppoints\nFormat settings, Matrix          : Default (H.263)\nMuxing mode                      : Packed bitstream\nCodec ID                         : XVID\nCodec ID/Hint                    : XviD\nDuration                         : 1h 41mn\nBit rate                         : 175 Kbps\nWidth                            : 720 pixels\nHeight                           : 402 pixels\nDisplay aspect ratio             : 16:9\nFrame rate                       : 25.000 fps\nColor space                      : YUV\nChroma subsampling               : 4:2:0\nBit depth                        : 8 bits\nScan type                        : Progressive\nCompression mode                 : Lossy\nBits/(Pixel*Frame)               : 0.024\nStream size                      : 127 MiB (11%)\n\nAudio\nID                               : 1\nFormat                           : AC-3\nFormat/Info                      : Audio Coding 3\nCodec ID                         : 2000\nDuration                         : 1h 41mn\nBit rate mode                    : Constant\nBit rate                         : 192 Kbps\nChannel(s)                       : 2 channels\nSampling rate                    : 48.0 KHz\nCompression mode                 : Lossy\nStream size                      : 12.2 MiB (1%)\nAlignment                        : Aligned on interleaves\nInterleave, duration             : 52 ms (1.30 video frame)\n\nThanks for downloading. \n\nPlease Seed!\n\n~Wolftatt2~","torrent":{"xt":"urn:btih:f76cb2f69c49a843ed234b8378e7eafccc8e19da","amp;dn":"The+Killing+Strain+%7B2010%7D+DVDRiP+XViD%7EWolftatt2%7E","amp;tr":["udp%3A%2F%2Ftracker.openbittorrent.com%3A80","udp%3A%2F%2Fopen.demonii.com%3A1337","udp%3A%2F%2Ftracker.coppersurfer.tk%3A6969","udp%3A%2F%2Fexodus.desync.com%3A6969"],"infoHash":"f76cb2f69c49a843ed234b8378e7eafccc8e19da","infoHashBuffer":{"type":"Buffer","data":[247,108,178,246,156,73,168,67,237,35,75,131,120,231,234,252,204,142,25,218]},"announce":[],"urlList":[]}}